<?xml version="1.0" encoding="UTF-8" standalone="no"?>
<!-- Created with Inkscape (http://www.inkscape.org/) -->
<svg
   xmlns:dc="http://purl.org/dc/elements/1.1/"
   xmlns:cc="http://web.resource.org/cc/"
   xmlns:rdf="http://www.w3.org/1999/02/22-rdf-syntax-ns#"
   xmlns:svg="http://www.w3.org/2000/svg"
   xmlns="http://www.w3.org/2000/svg"
   xmlns:sodipodi="http://sodipodi.sourceforge.net/DTD/sodipodi-0.dtd"
   xmlns:inkscape="http://www.inkscape.org/namespaces/inkscape"
   width="1052.3622"
   height="744.09448"
   id="svg2400"
   sodipodi:version="0.32"
   inkscape:version="0.45.1"
   sodipodi:docbase="/home/prh/Art/insophia/remeras/paths"
   sodipodi:docname="atras-blancas.svg"
   inkscape:output_extension="org.inkscape.output.svg.inkscape"
   version="1.0">
  <defs
     id="defs2402" />
  <sodipodi:namedview
     id="base"
     pagecolor="#ffffff"
     bordercolor="#666666"
     borderopacity="1.0"
     gridtolerance="10000"
     guidetolerance="10"
     objecttolerance="10"
     inkscape:pageopacity="0.0"
     inkscape:pageshadow="2"
     inkscape:zoom="0.7"
     inkscape:cx="450.63887"
     inkscape:cy="333.00802"
     inkscape:document-units="px"
     inkscape:current-layer="layer1"
     showguides="true"
     inkscape:guide-bbox="true"
     inkscape:window-width="1438"
     inkscape:window-height="854"
     inkscape:window-x="0"
     inkscape:window-y="15"
     width="1052.3622px"
     height="744.09449px" />
  <metadata
     id="metadata2405">
    <rdf:RDF>
      <cc:Work
         rdf:about="">
        <dc:format>image/svg+xml</dc:format>
        <dc:type
           rdf:resource="http://purl.org/dc/dcmitype/StillImage" />
      </cc:Work>
    </rdf:RDF>
  </metadata>
  <g
     inkscape:label="Layer 1"
     inkscape:groupmode="layer"
     id="layer1">
    <path
       style="font-size:12px;font-style:normal;font-weight:normal;fill:#c87137;fill-opacity:1;stroke:none;stroke-width:1px;stroke-linecap:butt;stroke-linejoin:miter;stroke-opacity:1;font-family:Bitstream Vera Sans"
       d="M 157.40649,285.90015 L 122.93971,285.90015 L 122.93971,306.55793 L 156.40421,306.55793 L 156.40421,318.75216 L 122.93971,318.75216 L 122.93971,347.48374 L 157.40649,347.48374 L 157.40649,359.67795 L 109.96597,359.67795 L 109.96597,273.70594 L 157.40649,273.70594 L 157.40649,285.90015 M 184.69034,265.63214 L 184.69034,359.67795 L 172.16203,359.67795 L 172.16203,265.63214 L 184.69034,265.63214 M 250.06026,335.51223 L 211.19466,335.51223 C 211.52874,339.96676 212.97644,343.51181 215.53782,346.14739 C 218.09913,348.74586 221.38432,350.04507 225.3934,350.04507 C 228.51154,350.04507 231.09142,349.30268 233.13313,347.81781 C 235.13761,346.33301 237.42053,343.58606 239.98193,339.57697 L 250.56137,345.47921 C 248.92801,348.26329 247.20189,350.65759 245.38303,352.66209 C 243.56404,354.62951 241.6152,356.26283 239.53648,357.56204 C 237.45766,358.82416 235.21185,359.75219 232.79903,360.34613 C 230.38613,360.94007 227.76912,361.23703 224.94796,361.23703 C 216.85557,361.23703 210.35943,358.63857 205.4595,353.44164 C 200.55951,348.2076 198.10955,341.26601 198.10955,332.6168 C 198.10955,324.04191 200.48526,317.10031 205.23677,311.79199 C 210.02535,306.558 216.37302,303.94096 224.27978,303.94092 C 232.26073,303.94096 238.57129,306.48376 243.21144,311.56926 C 247.81439,316.61776 250.11587,323.61503 250.11593,332.56114 L 250.06026,335.51223 M 237.19785,325.26686 C 235.45313,318.58515 231.23991,315.24427 224.55819,315.24423 C 223.03619,315.24427 221.60705,315.48555 220.27072,315.96808 C 218.93435,316.41358 217.70937,317.08176 216.59577,317.97262 C 215.51922,318.82643 214.59121,319.86582 213.81168,321.09076 C 213.03213,322.3158 212.4382,323.70783 212.02988,325.26686 L 237.19785,325.26686 M 316.15402,358.39729 C 316.15397,360.95862 316.06116,363.20443 315.87563,365.13471 C 315.72708,367.10213 315.50435,368.82825 315.20746,370.31308 C 314.31649,374.39636 312.57182,377.9043 309.97339,380.83687 C 305.07339,386.47922 298.33594,389.30041 289.76108,389.30043 C 282.52245,389.30041 276.56456,387.35154 271.88735,383.45388 C 267.06161,379.44481 264.27755,373.89524 263.53513,366.80517 L 276.11913,366.80517 C 276.6017,369.47785 277.39977,371.53806 278.51343,372.9858 C 281.11186,376.36378 284.89819,378.05279 289.87242,378.05279 C 299.04125,378.05279 303.62566,372.42897 303.62574,361.18134 L 303.62574,353.60868 C 298.65149,358.69425 292.91632,361.23703 286.42019,361.23703 C 279.03309,361.23703 272.9824,358.56433 268.26806,353.21892 C 263.51656,347.79926 261.14084,341.0247 261.14084,332.89522 C 261.14084,324.9885 263.34952,318.26963 267.76692,312.73857 C 272.51839,306.87353 278.79181,303.94096 286.58723,303.94092 C 293.41742,303.94096 299.09693,306.48376 303.62574,311.56926 L 303.62574,305.44431 L 316.15402,305.44431 L 316.15402,358.39729 M 304.12685,332.67249 C 304.1268,327.40135 302.71621,323.18814 299.89506,320.03283 C 297.03672,316.80335 293.38032,315.18858 288.92585,315.18856 C 284.17433,315.18858 280.42513,316.95183 277.67821,320.47828 C 275.1911,323.6336 273.94755,327.71689 273.94757,332.72818 C 273.94755,337.66526 275.1911,341.71146 277.67821,344.8667 C 280.38801,348.31896 284.13722,350.04507 288.92585,350.04507 C 293.71439,350.04507 297.50073,348.3004 300.28485,344.81104 C 302.84614,341.65577 304.1268,337.60961 304.12685,332.67249 M 372.0581,305.44431 L 384.6421,305.44431 L 384.6421,359.67795 L 372.0581,359.67795 L 372.0581,353.99844 C 366.89826,358.82416 361.34868,361.23703 355.40938,361.23703 C 347.91093,361.23703 341.71176,358.52719 336.81182,353.10755 C 331.94897,347.57654 329.51754,340.67207 329.51754,332.39407 C 329.51754,324.26463 331.94897,317.49008 336.81182,312.0704 C 341.67463,306.6508 347.76245,303.94096 355.0753,303.94092 C 361.38581,303.94096 367.04674,306.53942 372.0581,311.7363 L 372.0581,305.44431 M 342.32427,332.39407 C 342.32424,337.59103 343.71628,341.82281 346.50036,345.08942 C 349.35864,348.39319 352.95937,350.04507 357.30256,350.04507 C 361.94261,350.04507 365.69184,348.44888 368.55019,345.25648 C 371.40846,341.95273 372.8376,337.75809 372.83766,332.67249 C 372.8376,327.58696 371.40846,323.39232 368.55019,320.08851 C 365.69184,316.85903 361.97975,315.24427 357.41392,315.24423 C 353.10786,315.24427 349.50712,316.87759 346.61174,320.14418 C 343.7534,323.44797 342.32424,327.53128 342.32427,332.39407 M 400.4556,305.44431 L 413.03958,305.44431 L 413.03958,310.45564 C 417.41982,306.11255 422.35692,303.94096 427.85082,303.94092 C 434.16134,303.94096 439.07985,305.92693 442.60639,309.89881 C 445.65024,313.27687 447.1722,318.78932 447.17226,326.43618 L 447.17226,359.67795 L 434.58828,359.67795 L 434.58828,329.3873 C 434.58823,324.04191 433.84582,320.3484 432.36102,318.30672 C 430.91325,316.22797 428.27767,315.18858 424.45426,315.18856 C 420.2967,315.18858 417.34558,316.56207 415.60093,319.30897 C 413.89335,322.01883 413.03956,326.75174 413.03958,333.50771 L 413.03958,359.67795 L 400.4556,359.67795 L 400.4556,305.44431 M 475.95952,317.1374 L 475.95952,359.67795 L 463.43121,359.67795 L 463.43121,317.1374 L 458.0858,317.1374 L 458.0858,305.44431 L 463.43121,305.44431 L 463.43121,285.56608 L 475.95952,285.56608 L 475.95952,305.44431 L 485.70375,305.44431 L 485.70375,317.1374 L 475.95952,317.1374 M 560.92925,314.68742 L 550.57253,320.19987 C 548.93919,316.85903 546.91608,315.18858 544.50325,315.18856 C 543.3525,315.18858 542.36877,315.57837 541.55215,316.35785 C 540.73545,317.10031 540.32714,318.06546 540.32717,319.25328 C 540.32714,321.3321 542.73999,323.39232 547.56572,325.43392 C 554.21034,328.29225 558.6834,330.92784 560.98494,333.34067 C 563.28639,335.75356 564.43715,339.00163 564.43719,343.0849 C 564.43715,348.31896 562.50686,352.69923 558.64634,356.22569 C 554.89709,359.56658 550.36833,361.23703 545.06008,361.23703 C 535.96543,361.23703 529.52497,356.80107 525.73864,347.92919 L 536.42945,342.97355 C 537.91429,345.57201 539.04647,347.2239 539.82603,347.92919 C 541.34797,349.33979 543.16688,350.04507 545.28281,350.04507 C 549.51455,350.04507 551.63045,348.11481 551.63047,344.25421 C 551.63045,342.02698 549.99713,339.94821 546.73051,338.0179 C 545.46838,337.38688 544.20627,336.77437 542.94418,336.18041 C 541.68205,335.5865 540.40139,334.97401 539.10216,334.34294 C 535.46432,332.56117 532.90296,330.77936 531.41815,328.99753 C 529.52497,326.73317 528.57838,323.81919 528.5784,320.25555 C 528.57838,315.54123 530.19315,311.64355 533.42267,308.56246 C 536.72642,305.48149 540.73545,303.94096 545.44985,303.94092 C 552.39142,303.94096 557.55121,307.52314 560.92925,314.68742 M 573.17915,332.17136 C 573.17915,324.33888 575.98178,317.67569 581.58705,312.18175 C 587.19228,306.6879 594.02251,303.94096 602.07779,303.94092 C 610.1701,303.94096 617.03745,306.70649 622.67988,312.23744 C 628.24794,317.76849 631.03202,324.56161 631.03209,332.6168 C 631.03202,340.74632 628.22939,347.55798 622.62419,353.05188 C 616.98177,358.50864 610.05873,361.23703 601.85507,361.23703 C 593.72555,361.23703 586.91386,358.45295 581.41999,352.88482 C 575.92609,347.39094 573.17915,340.48646 573.17915,332.17136 M 585.98587,332.39407 C 585.98585,337.81375 587.43356,342.10122 590.32901,345.25648 C 593.29866,348.44888 597.21491,350.04507 602.07779,350.04507 C 606.9777,350.04507 610.89394,348.46744 613.82655,345.31215 C 616.75904,342.15691 618.22533,337.94368 618.22537,332.67249 C 618.22533,327.40135 616.75904,323.18814 613.82655,320.03283 C 610.85683,316.84048 606.94057,315.24427 602.07779,315.24423 C 597.28916,315.24427 593.41003,316.84048 590.44038,320.03283 C 587.47068,323.22526 585.98585,327.34569 585.98587,332.39407 M 657.31369,317.1374 L 657.31369,359.67795 L 644.72969,359.67795 L 644.72969,317.1374 L 640.27518,317.1374 L 640.27518,305.44431 L 644.72969,305.44431 L 644.72969,284.50811 C 644.72969,277.67796 645.91757,272.85224 648.2933,270.03096 C 651.55992,266.09624 656.3114,264.12885 662.54773,264.12875 C 664.77496,264.12885 667.57757,264.77847 670.95561,266.0776 L 670.95561,278.88432 L 669.67494,278.21614 C 666.96508,276.84275 664.73783,276.15599 662.99318,276.15592 C 660.76591,276.15599 659.26251,276.9541 658.48298,278.55022 C 657.70343,280.10936 657.31367,283.11617 657.31369,287.5706 L 657.31369,305.44431 L 670.95561,305.44431 L 670.95561,317.1374 L 657.31369,317.1374 M 691.11227,317.1374 L 691.11227,359.67795 L 678.58396,359.67795 L 678.58396,317.1374 L 673.23855,317.1374 L 673.23855,305.44431 L 678.58396,305.44431 L 678.58396,285.56608 L 691.11227,285.56608 L 691.11227,305.44431 L 700.8565,305.44431 L 700.8565,317.1374 L 691.11227,317.1374 M 716.16886,305.44431 L 730.36762,336.40314 L 745.67999,300.48868 L 761.10374,336.40314 L 775.13544,305.44431 L 789.16714,305.44431 L 760.76964,363.7427 L 745.67999,328.83047 L 730.42329,363.7427 L 702.08151,305.44431 L 716.16886,305.44431 M 837.55422,305.44431 L 850.13821,305.44431 L 850.13821,359.67795 L 837.55422,359.67795 L 837.55422,353.99844 C 832.39438,358.82416 826.84479,361.23703 820.9055,361.23703 C 813.40705,361.23703 807.20788,358.52719 802.30793,353.10755 C 797.44508,347.57654 795.01366,340.67207 795.01366,332.39407 C 795.01366,324.26463 797.44508,317.49008 802.30793,312.0704 C 807.17074,306.6508 813.25857,303.94096 820.57142,303.94092 C 826.88193,303.94096 832.54286,306.53942 837.55422,311.7363 L 837.55422,305.44431 M 807.82038,332.39407 C 807.82036,337.59103 809.2124,341.82281 811.99648,345.08942 C 814.85475,348.39319 818.45549,350.04507 822.79868,350.04507 C 827.43873,350.04507 831.18795,348.44888 834.0463,345.25648 C 836.90458,341.95273 838.33372,337.75809 838.33377,332.67249 C 838.33372,327.58696 836.90458,323.39232 834.0463,320.08851 C 831.18795,316.85903 827.47586,315.24427 822.91003,315.24423 C 818.60398,315.24427 815.00324,316.87759 812.10785,320.14418 C 809.24951,323.44797 807.82036,327.53128 807.82038,332.39407 M 865.95172,305.44431 L 878.48003,305.44431 L 878.48003,310.2886 C 880.78151,307.87578 882.82314,306.2239 884.60497,305.33295 C 886.42386,304.40499 888.57687,303.94096 891.064,303.94092 C 894.36773,303.94096 897.81996,305.01748 901.42075,307.17044 L 895.68555,318.64079 C 893.30979,316.93327 890.98974,316.07948 888.7254,316.07946 C 881.89513,316.07948 878.48001,321.2393 878.48003,331.55886 L 878.48003,359.67795 L 865.95172,359.67795 L 865.95172,305.44431 M 958.10435,335.51223 L 919.23878,335.51223 C 919.57284,339.96676 921.02056,343.51181 923.58191,346.14739 C 926.14322,348.74586 929.42844,350.04507 933.43752,350.04507 C 936.55562,350.04507 939.13554,349.30268 941.17722,347.81781 C 943.18171,346.33301 945.46464,343.58606 948.02603,339.57697 L 958.60549,345.47921 C 956.9721,348.26329 955.24599,350.65759 953.42712,352.66209 C 951.60814,354.62951 949.65929,356.26283 947.58057,357.56204 C 945.50176,358.82416 943.25595,359.75219 940.84315,360.34613 C 938.43023,360.94007 935.81321,361.23703 932.99207,361.23703 C 924.89969,361.23703 918.40355,358.63857 913.50358,353.44164 C 908.60363,348.2076 906.15364,341.26601 906.15364,332.6168 C 906.15364,324.04191 908.52938,317.10031 913.28085,311.79199 C 918.06944,306.558 924.4171,303.94096 932.32389,303.94092 C 940.30485,303.94096 946.61538,306.48376 951.25555,311.56926 C 955.85847,316.61776 958.15997,323.61503 958.16004,332.56114 L 958.10435,335.51223 M 945.24197,325.26686 C 943.49722,318.58515 939.28401,315.24427 932.60231,315.24423 C 931.08031,315.24427 929.65116,315.48555 928.31484,315.96808 C 926.97845,316.41358 925.75346,317.08176 924.63985,317.97262 C 923.56333,318.82643 922.6353,319.86582 921.8558,321.09076 C 921.07622,322.3158 920.48229,323.70783 920.07399,325.26686 L 945.24197,325.26686"
       id="text2208" />
    <path
       style="font-size:12px;font-style:normal;font-weight:normal;fill:#4d4d4d;fill-opacity:1;stroke:none;stroke-width:1px;stroke-linecap:butt;stroke-linejoin:miter;stroke-opacity:1;font-family:Bitstream Vera Sans"
       d="M 367.58447,465.01201 L 367.58447,492.12882 L 361.32031,492.12882 L 361.32031,465.01201 L 367.58447,465.01201 M 360.37373,453.73652 C 360.37373,452.64149 360.77277,451.69491 361.57088,450.89678 C 362.36896,450.09872 363.32481,449.69967 364.43847,449.69962 C 365.57065,449.69967 366.5358,450.09872 367.3339,450.89678 C 368.13198,451.67636 368.53103,452.63221 368.53103,453.76436 C 368.53103,454.89659 368.13198,455.86174 367.3339,456.65979 C 366.55435,457.45792 365.5985,457.85698 364.46631,457.85695 C 363.3341,457.85698 362.36896,457.45792 361.57088,456.65979 C 360.77277,455.86174 360.37373,454.88731 360.37373,453.73652 M 375.57474,465.01201 L 381.86671,465.01201 L 381.86671,467.51765 C 384.05684,465.34611 386.5254,464.26033 389.27234,464.2603 C 392.4276,464.26033 394.88685,465.25332 396.65012,467.23927 C 398.17204,468.92827 398.93304,471.68451 398.93307,475.50792 L 398.93307,492.12882 L 392.64106,492.12882 L 392.64106,476.9835 C 392.64104,474.31082 392.26983,472.46404 391.52744,471.4432 C 390.80357,470.40385 389.48578,469.88415 387.57407,469.88412 C 385.49528,469.88415 384.01972,470.57088 383.1474,471.94432 C 382.29362,473.29925 381.86671,475.66572 381.86671,479.04371 L 381.86671,492.12882 L 375.57474,492.12882 L 375.57474,465.01201 M 422.62546,469.63356 L 417.44712,472.38978 C 416.63044,470.71937 415.61889,469.88415 414.41247,469.88412 C 413.83709,469.88415 413.34524,470.07903 412.93692,470.46877 C 412.52858,470.84 412.3244,471.32256 412.32444,471.9165 C 412.3244,472.95588 413.53085,473.986 415.9437,475.00681 C 419.26603,476.43599 421.50255,477.75376 422.65331,478.96018 C 423.80404,480.16663 424.37942,481.79066 424.37945,483.8323 C 424.37942,486.44934 423.41428,488.63946 421.48402,490.4027 C 419.60939,492.07314 417.34501,492.90835 414.69088,492.90835 C 410.14358,492.90835 406.92333,490.69038 405.03016,486.25444 L 410.37557,483.77661 C 411.11799,485.07585 411.68407,485.9018 412.07386,486.25444 C 412.83483,486.95974 413.74429,487.3124 414.80225,487.31237 C 416.91814,487.3124 417.97607,486.34725 417.97607,484.41694 C 417.97607,483.30334 417.15942,482.26395 415.5261,481.29878 C 414.89503,480.98329 414.26398,480.67704 413.63294,480.38007 C 413.00187,480.08309 412.36154,479.77684 411.71192,479.46132 C 409.89301,478.57042 408.61231,477.67952 407.86993,476.78862 C 406.92333,475.65643 406.45004,474.19944 406.45004,472.41761 C 406.45004,470.06046 407.25741,468.11161 408.87218,466.57109 C 410.52405,465.03059 412.52858,464.26033 414.88577,464.2603 C 418.35654,464.26033 420.93646,466.05143 422.62546,469.63356 M 428.75043,478.37554 C 428.75043,474.4593 430.15173,471.12768 432.95436,468.38071 C 435.75698,465.63381 439.17209,464.26033 443.19973,464.2603 C 447.2459,464.26033 450.67958,465.64307 453.50079,468.40856 C 456.28483,471.17408 457.67687,474.57065 457.67689,478.59826 C 457.67687,482.66301 456.27553,486.06884 453.47294,488.81579 C 450.65173,491.54416 447.19022,492.90835 443.08838,492.90835 C 439.02362,492.90835 435.61778,491.51634 432.87084,488.73225 C 430.12388,485.98531 428.75043,482.53308 428.75043,478.37554 M 435.15377,478.48689 C 435.15377,481.19673 435.87764,483.34044 437.32535,484.91808 C 438.81017,486.51429 440.76831,487.3124 443.19973,487.31237 C 445.64969,487.3124 447.60782,486.52359 449.07412,484.94592 C 450.54035,483.36829 451.27351,481.26168 451.27353,478.62608 C 451.27351,475.99053 450.54035,473.88392 449.07412,472.30626 C 447.58927,470.71008 445.63114,469.91197 443.19973,469.91197 C 440.80542,469.91197 438.86586,470.71008 437.38103,472.30626 C 435.89619,473.90248 435.15377,475.96269 435.15377,478.48689 M 470.59496,506.88439 L 464.33081,506.88439 L 464.33081,465.01201 L 470.59496,465.01201 L 470.59496,467.9631 C 473.06349,465.4946 475.8661,464.26033 479.00284,464.2603 C 482.73348,464.26033 485.80522,465.63381 488.21812,468.38071 C 490.66807,471.10913 491.89305,474.55209 491.89307,478.70962 C 491.89305,482.77436 490.67734,486.16164 488.24595,488.87145 C 485.83306,491.56273 482.78915,492.90835 479.11422,492.90835 C 475.94035,492.90835 473.10061,491.63698 470.59496,489.09418 L 470.59496,506.88439 M 485.48971,478.73746 C 485.48969,476.13901 484.78441,474.02311 483.37384,472.38978 C 481.94466,470.73792 480.14428,469.91197 477.97274,469.91197 C 475.67122,469.91197 473.80591,470.71008 472.37676,472.30626 C 470.9476,473.90248 470.23301,475.9998 470.23303,478.59826 C 470.23301,481.14104 470.9476,483.23837 472.37676,484.89024 C 473.78736,486.505 475.64337,487.3124 477.94489,487.31237 C 480.11647,487.3124 481.90754,486.49574 483.31815,484.8624 C 484.76583,483.2291 485.48969,481.18743 485.48971,478.73746 M 498.51916,445.10592 L 504.78332,445.10592 L 504.78332,467.26708 C 507.01056,465.2626 509.46982,464.26033 512.16108,464.2603 C 515.22355,464.26033 517.67353,465.25332 519.51102,467.23927 C 521.07007,468.96541 521.84962,471.72162 521.84965,475.50792 L 521.84965,492.12882 L 515.5855,492.12882 L 515.5855,476.09259 C 515.58547,473.92103 515.19571,472.35268 514.41617,471.38751 C 513.65518,470.40385 512.42092,469.91197 510.71338,469.91197 C 508.52324,469.91197 506.98271,470.58944 506.09183,471.94432 C 505.21949,473.31783 504.7833,475.67498 504.78332,479.01587 L 504.78332,492.12882 L 498.51916,492.12882 L 498.51916,445.10592 M 536.07623,465.01201 L 536.07623,492.12882 L 529.81208,492.12882 L 529.81208,465.01201 L 536.07623,465.01201 M 528.86549,453.73652 C 528.86549,452.64149 529.26455,451.69491 530.06264,450.89678 C 530.86075,450.09872 531.81661,449.69967 532.93023,449.69962 C 534.06241,449.69967 535.02756,450.09872 535.82567,450.89678 C 536.62377,451.67636 537.02279,452.63221 537.02282,453.76436 C 537.02279,454.89659 536.62377,455.86174 535.82567,456.65979 C 535.04611,457.45792 534.09026,457.85698 532.95807,457.85695 C 531.8259,457.85698 530.86075,457.45792 530.06264,456.65979 C 529.26455,455.86174 528.86549,454.88731 528.86549,453.73652 M 564.05611,465.01201 L 570.3481,465.01201 L 570.3481,492.12882 L 564.05611,492.12882 L 564.05611,489.28908 C 561.47619,491.70193 558.7014,492.90835 555.73175,492.90835 C 551.98253,492.90835 548.88293,491.55344 546.43298,488.84363 C 544.00155,486.07813 542.78584,482.62587 542.78584,478.48689 C 542.78584,474.42217 544.00155,471.03488 546.43298,468.32505 C 548.86438,465.61524 551.90829,464.26033 555.56471,464.2603 C 558.71995,464.26033 561.55043,465.55957 564.05611,468.15799 L 564.05611,465.01201 M 549.18919,478.48689 C 549.18919,481.08536 549.8852,483.20125 551.27724,484.83457 C 552.7064,486.48645 554.50675,487.3124 556.67835,487.31237 C 558.99837,487.3124 560.87298,486.51429 562.30214,484.91808 C 563.73129,483.2662 564.44586,481.16888 564.44589,478.62608 C 564.44586,476.08332 563.73129,473.986 562.30214,472.33411 C 560.87298,470.71937 559.01693,469.91197 556.734,469.91197 C 554.58099,469.91197 552.78064,470.72863 551.33293,472.36195 C 549.90377,474.01385 549.18919,476.05549 549.18919,478.48689 M 579.22927,489.01067 C 579.22927,487.97128 579.60977,487.0711 580.37074,486.31012 C 581.13172,485.54915 582.04118,485.16865 583.09914,485.16865 C 584.15707,485.16865 585.06653,485.54915 585.82753,486.31012 C 586.58848,487.0711 586.96898,487.98058 586.969,489.03851 C 586.96898,490.115 586.58848,491.03375 585.82753,491.79472 C 585.08509,492.53714 584.17564,492.90835 583.09914,492.90835 C 582.00406,492.90835 581.08532,492.53714 580.34291,491.79472 C 579.60049,491.0523 579.22927,490.1243 579.22927,489.01067 M 616.9534,466.1813 L 616.9534,474.50567 C 615.52423,472.761 614.24356,471.56387 613.11138,470.91422 C 611.99773,470.24607 610.68922,469.91197 609.18585,469.91197 C 606.82865,469.91197 604.87055,470.73792 603.31147,472.38978 C 601.75239,474.04167 600.97283,476.11117 600.97285,478.59826 C 600.97283,481.14104 601.72454,483.2291 603.22795,484.8624 C 604.74991,486.49574 606.68945,487.3124 609.04664,487.31237 C 610.55002,487.3124 611.87709,486.98758 613.02787,486.33796 C 614.14147,485.70692 615.44999,484.48192 616.9534,482.66299 L 616.9534,490.93166 C 614.4106,492.24946 611.86782,492.90835 609.32504,492.90835 C 605.13038,492.90835 601.62246,491.55344 598.80127,488.84363 C 595.98008,486.11523 594.56949,482.72796 594.56949,478.68177 C 594.56949,474.6356 595.99866,471.22051 598.85696,468.4364 C 601.71525,465.65237 605.22318,464.26033 609.38073,464.2603 C 612.05341,464.26033 614.57764,464.90066 616.9534,466.1813 M 621.74199,478.37554 C 621.74199,474.4593 623.14332,471.12768 625.94595,468.38071 C 628.74855,465.63381 632.16368,464.26033 636.19132,464.2603 C 640.23745,464.26033 643.67114,465.64307 646.49234,468.40856 C 649.2764,471.17408 650.66842,474.57065 650.66847,478.59826 C 650.66842,482.66301 649.26711,486.06884 646.46451,488.81579 C 643.64329,491.54416 640.18177,492.90835 636.07994,492.90835 C 632.0152,492.90835 628.60936,491.51634 625.86242,488.73225 C 623.11547,485.98531 621.74199,482.53308 621.74199,478.37554 M 628.14536,478.48689 C 628.14534,481.19673 628.86919,483.34044 630.31693,484.91808 C 631.80174,486.51429 633.75987,487.3124 636.19132,487.31237 C 638.64127,487.3124 640.59941,486.52359 642.06568,484.94592 C 643.53194,483.36829 644.26507,481.26168 644.26509,478.62608 C 644.26507,475.99053 643.53194,473.88392 642.06568,472.30626 C 640.58082,470.71008 638.62272,469.91197 636.19132,469.91197 C 633.79701,469.91197 631.85743,470.71008 630.37262,472.30626 C 628.88776,473.90248 628.14534,475.96269 628.14536,478.48689 M 657.32238,465.01201 L 663.58654,465.01201 L 663.58654,467.51765 C 664.79294,466.25557 665.82306,465.4018 666.67686,464.95632 C 667.58629,464.49235 668.72776,464.26033 670.10125,464.2603 C 673.16371,464.26033 675.58585,465.59668 677.36767,468.26937 C 679.33505,465.59668 681.99847,464.26033 685.35795,464.2603 C 691.46428,464.26033 694.51749,467.96313 694.51753,475.36873 L 694.51753,492.12882 L 688.22553,492.12882 L 688.22553,477.067 C 688.22551,474.46857 687.90997,472.63108 687.27894,471.55455 C 686.6293,470.4595 685.56207,469.91197 684.07728,469.91197 C 682.35112,469.91197 681.08901,470.56159 680.29095,471.86082 C 679.51138,473.16006 679.12161,475.24811 679.12163,478.12497 L 679.12163,492.12882 L 672.82964,492.12882 L 672.82964,477.15054 C 672.82962,472.32484 671.4376,469.91197 668.65354,469.91197 C 666.89029,469.91197 665.60034,470.57088 664.78368,471.88866 C 663.98557,473.20646 663.58652,475.28523 663.58654,478.12497 L 663.58654,492.12882 L 657.32238,492.12882 L 657.32238,465.01201"
       id="text2212" />
    <path
       style="font-size:12.24666023px;font-style:normal;font-weight:normal;fill:#c87137;fill-opacity:1;stroke:none;stroke-width:1px;stroke-linecap:butt;stroke-linejoin:miter;stroke-opacity:1;font-family:Bitstream Vera Sans"
       d="M 579.17114,489.024 C 579.17114,487.96325 579.55946,487.04458 580.33608,486.26795 C 581.11269,485.49132 582.04084,485.10303 583.12054,485.10301 C 584.20022,485.10303 585.12838,485.49132 585.905,486.26795 C 586.68161,487.04458 587.06993,487.97273 587.06995,489.05241 C 587.06993,490.15104 586.68161,491.08868 585.905,491.86528 C 585.1473,492.62298 584.21915,493.00182 583.12054,493.00182 C 582.00294,493.00182 581.06534,492.62298 580.30767,491.86528 C 579.54998,491.10761 579.17114,490.16052 579.17114,489.024"
       id="text2218" />
  </g>
</svg>
