<?xml version="1.0" encoding="UTF-8" standalone="no"?>
<!-- Created with Inkscape (http://www.inkscape.org/) -->
<svg
   xmlns:dc="http://purl.org/dc/elements/1.1/"
   xmlns:cc="http://web.resource.org/cc/"
   xmlns:rdf="http://www.w3.org/1999/02/22-rdf-syntax-ns#"
   xmlns:svg="http://www.w3.org/2000/svg"
   xmlns="http://www.w3.org/2000/svg"
   xmlns:sodipodi="http://sodipodi.sourceforge.net/DTD/sodipodi-0.dtd"
   xmlns:inkscape="http://www.inkscape.org/namespaces/inkscape"
   width="1052.3622"
   height="744.09448"
   id="svg2"
   sodipodi:version="0.32"
   inkscape:version="0.45.1"
   sodipodi:docbase="/home/prh/Art/insophia/remeras/paths"
   sodipodi:docname="atras-negras.svg"
   inkscape:output_extension="org.inkscape.output.svg.inkscape"
   inkscape:export-filename="/home/prh/Art/insophia_slogan2.png"
   inkscape:export-xdpi="163.77"
   inkscape:export-ydpi="163.77"
   version="1.0">
  <defs
     id="defs4" />
  <sodipodi:namedview
     id="base"
     pagecolor="#000000"
     bordercolor="#666666"
     borderopacity="1.0"
     gridtolerance="10000"
     guidetolerance="10"
     objecttolerance="10"
     inkscape:pageopacity="1"
     inkscape:pageshadow="2"
     inkscape:zoom="0.49497475"
     inkscape:cx="581.70496"
     inkscape:cy="127.63358"
     inkscape:document-units="px"
     inkscape:current-layer="layer1"
     inkscape:window-width="1438"
     inkscape:window-height="824"
     inkscape:window-x="0"
     inkscape:window-y="45"
     width="1052.3622px"
     height="744.09449px" />
  <metadata
     id="metadata7">
    <rdf:RDF>
      <cc:Work
         rdf:about="">
        <dc:format>image/svg+xml</dc:format>
        <dc:type
           rdf:resource="http://purl.org/dc/dcmitype/StillImage" />
      </cc:Work>
    </rdf:RDF>
  </metadata>
  <g
     inkscape:label="Layer 1"
     inkscape:groupmode="layer"
     id="layer1">
    <text
       xml:space="preserve"
       style="font-size:29.85259628px;font-style:normal;font-weight:normal;fill:#808080;fill-opacity:1;stroke:none;stroke-width:1px;stroke-linecap:butt;stroke-linejoin:miter;stroke-opacity:1;font-family:Bitstream Vera Sans"
       x="522.07928"
       y="371.73853"
       id="text2160"><tspan
         sodipodi:role="line"
         x="522.07927"
         y="371.73853"
         id="tspan2164"
         style="font-size:119.41038513px;text-align:center;text-anchor:middle;fill:#808080;font-family:Futura">Elegant software</tspan></text>
    <path
       style="font-size:12px;font-style:normal;font-weight:normal;fill:#c87137;fill-opacity:1;stroke:none;stroke-width:1px;stroke-linecap:butt;stroke-linejoin:miter;stroke-opacity:1;font-family:Bitstream Vera Sans"
       d="M 334.53659,482.03743 L 334.53659,510.4324 L 327.97718,510.4324 L 327.97718,482.03743 L 334.53659,482.03743 M 326.986,470.2305 C 326.986,469.08387 327.40383,468.09266 328.23956,467.25691 C 329.07528,466.42124 330.07619,466.00338 331.2423,466.00333 C 332.42785,466.00338 333.43849,466.42124 334.27421,467.25691 C 335.10993,468.07323 335.52779,469.07414 335.52779,470.25966 C 335.52779,471.44526 335.10993,472.45589 334.27421,473.29156 C 333.45794,474.12731 332.45701,474.54517 331.27146,474.54515 C 330.08591,474.54517 329.07528,474.12731 328.23956,473.29156 C 327.40383,472.45589 326.986,471.43553 326.986,470.2305 M 342.90347,482.03743 L 349.49204,482.03743 L 349.49204,484.6612 C 351.78539,482.3873 354.37028,481.25034 357.24673,481.25032 C 360.55071,481.25034 363.12587,482.29013 364.97226,484.36966 C 366.56591,486.13831 367.36275,489.02446 367.3628,493.02809 L 367.3628,510.4324 L 360.77423,510.4324 L 360.77423,494.57321 C 360.77421,491.77453 360.3855,489.84072 359.60812,488.77178 C 358.85011,487.6834 357.47022,487.13924 355.46841,487.13921 C 353.29163,487.13924 351.74654,487.85834 350.83307,489.29651 C 349.93904,490.71531 349.49204,493.19332 349.49204,496.73051 L 349.49204,510.4324 L 342.90347,510.4324 L 342.90347,482.03743 M 392.17193,486.87683 L 386.74948,489.76296 C 385.89432,488.01382 384.8351,487.13924 383.57182,487.13921 C 382.96932,487.13924 382.45429,487.34331 382.02672,487.75142 C 381.59913,488.14015 381.38534,488.64545 381.38534,489.26736 C 381.38534,490.35576 382.64863,491.43443 385.17522,492.50335 C 388.65412,493.99986 390.99608,495.37977 392.20108,496.64306 C 393.40606,497.90637 394.00853,499.60695 394.00856,501.74482 C 394.00853,504.48519 392.9979,506.77857 390.97665,508.6249 C 389.01367,510.37409 386.64258,511.24867 383.86335,511.24867 C 379.10169,511.24867 375.72969,508.92616 373.74728,504.28112 L 379.34464,501.68651 C 380.12205,503.04699 380.71482,503.91187 381.12298,504.28112 C 381.9198,505.01968 382.87215,505.38895 383.97995,505.38893 C 386.19556,505.38895 387.30337,504.37832 387.30339,502.35702 C 387.30337,501.19093 386.44821,500.10255 384.73793,499.0919 C 384.07712,498.76153 383.41633,498.44083 382.75555,498.12985 C 382.09474,497.81891 381.42422,497.49821 380.74398,497.16782 C 378.83931,496.23493 377.49828,495.30203 376.72087,494.36914 C 375.72969,493.18359 375.23409,491.65793 375.23409,489.79211 C 375.23409,487.32385 376.07951,485.28315 377.77039,483.66999 C 379.50012,482.05691 381.59913,481.25034 384.06742,481.25032 C 387.7018,481.25034 390.40331,483.12586 392.17193,486.87683 M 398.58558,496.03083 C 398.58558,491.93001 400.05294,488.44138 402.98767,485.56494 C 405.92238,482.68854 409.49847,481.25034 413.71595,481.25032 C 417.9528,481.25034 421.54835,482.69827 424.50254,485.59409 C 427.41779,488.48997 428.87542,492.04663 428.87547,496.26406 C 428.87542,500.52042 427.40807,504.08678 424.47338,506.9632 C 421.51919,509.82017 417.89452,511.24867 413.59933,511.24867 C 409.34299,511.24867 405.77663,509.79102 402.9002,506.87574 C 400.02378,503.99931 398.58558,500.38436 398.58558,496.03083 M 405.29075,496.14746 C 405.29075,498.98502 406.04871,501.22979 407.56467,502.88178 C 409.1195,504.55323 411.1699,505.38895 413.71595,505.38893 C 416.28138,505.38895 418.33181,504.56293 419.8672,502.91094 C 421.40257,501.25894 422.17028,499.05304 422.1703,496.29321 C 422.17028,493.53342 421.40257,491.32753 419.8672,489.67552 C 418.31238,488.00409 416.26195,487.16837 413.71595,487.16835 C 411.20878,487.16837 409.17778,488.00409 407.62298,489.67552 C 406.06816,491.34696 405.29075,493.50429 405.29075,496.14746 M 442.40243,525.88343 L 435.84302,525.88343 L 435.84302,482.03743 L 442.40243,482.03743 L 442.40243,485.12765 C 444.98732,482.54278 447.92203,481.25034 451.20661,481.25032 C 455.11307,481.25034 458.32961,482.68854 460.85623,485.56494 C 463.42164,488.42196 464.70438,492.0272 464.70441,496.38068 C 464.70438,500.63702 463.43137,504.18395 460.88539,507.02149 C 458.35877,509.83963 455.17138,511.24867 451.32323,511.24867 C 447.99977,511.24867 445.02617,509.91737 442.40243,507.25471 L 442.40243,525.88343 M 457.99924,496.40984 C 457.99922,493.6889 457.26066,491.47329 455.78361,489.76296 C 454.28707,488.03325 452.40186,487.16837 450.12796,487.16835 C 447.71796,487.16837 445.76473,488.00409 444.26822,489.67552 C 442.77168,491.34696 442.02343,493.54314 442.02343,496.26406 C 442.02343,498.92671 442.77168,501.12289 444.26822,502.85263 C 445.74527,504.5435 447.6888,505.38895 450.0988,505.38893 C 452.3727,505.38895 454.24821,504.5338 455.72532,502.82347 C 457.24123,501.11319 457.99922,498.9753 457.99924,496.40984 M 471.6428,461.1931 L 478.20221,461.1931 L 478.20221,484.39882 C 480.53444,482.29983 483.1096,481.25034 485.92774,481.25032 C 489.13456,481.25034 491.69999,482.29013 493.62411,484.36966 C 495.25665,486.17719 496.07295,489.06331 496.07297,493.02809 L 496.07297,510.4324 L 489.51356,510.4324 L 489.51356,493.64031 C 489.51353,491.36639 489.1054,489.72413 488.28913,488.71347 C 487.49226,487.6834 486.19982,487.16837 484.4118,487.16835 C 482.11842,487.16837 480.50529,487.87777 479.5724,489.29651 C 478.65893,490.73476 478.20221,493.20302 478.20221,496.70137 L 478.20221,510.4324 L 471.6428,510.4324 L 471.6428,461.1931 M 510.97011,482.03743 L 510.97011,510.4324 L 504.4107,510.4324 L 504.4107,482.03743 L 510.97011,482.03743 M 503.4195,470.2305 C 503.4195,469.08387 503.83736,468.09266 504.67308,467.25691 C 505.50878,466.42124 506.50971,466.00338 507.67583,466.00333 C 508.86138,466.00338 509.87201,466.42124 510.70773,467.25691 C 511.54343,468.07323 511.96129,469.07414 511.96132,470.25966 C 511.96129,471.44526 511.54343,472.45589 510.70773,473.29156 C 509.89144,474.12731 508.89053,474.54517 507.70498,474.54515 C 506.51941,474.54517 505.50878,474.12731 504.67308,473.29156 C 503.83736,472.45589 503.4195,471.43553 503.4195,470.2305 M 540.26879,482.03743 L 546.85736,482.03743 L 546.85736,510.4324 L 540.26879,510.4324 L 540.26879,507.45878 C 537.56728,509.98538 534.66171,511.24867 531.55209,511.24867 C 527.62615,511.24867 524.38045,509.8299 521.81499,506.99234 C 519.26896,504.09648 517.99597,500.48153 517.99597,496.14746 C 517.99597,491.89115 519.26896,488.34421 521.81499,485.50665 C 524.36102,482.66911 527.5484,481.25034 531.37715,481.25032 C 534.68113,481.25034 537.64503,482.6108 540.26879,485.33171 L 540.26879,482.03743 M 524.70114,496.14746 C 524.70114,498.8684 525.42994,501.08403 526.88762,502.79431 C 528.3841,504.52407 530.26932,505.38895 532.54327,505.38893 C 534.97267,505.38895 536.93563,504.55323 538.43216,502.88178 C 539.92865,501.15205 540.6769,498.95587 540.67693,496.29321 C 540.6769,493.63061 539.92865,491.43443 538.43216,489.70467 C 536.93563,488.01382 534.9921,487.16837 532.60158,487.16835 C 530.34706,487.16837 528.46184,488.02352 526.9459,489.7338 C 525.44939,491.46356 524.70114,493.60146 524.70114,496.14746 M 556.15714,507.16727 C 556.15714,506.0789 556.55555,505.13627 557.35242,504.33943 C 558.14926,503.54259 559.10158,503.14416 560.20941,503.14416 C 561.31721,503.14416 562.26954,503.54259 563.06638,504.33943 C 563.86322,505.13627 564.26165,506.0886 564.26165,507.19643 C 564.26165,508.32366 563.86322,509.28571 563.06638,510.08255 C 562.28897,510.85996 561.33664,511.24867 560.20941,511.24867 C 559.06272,511.24867 558.10067,510.85996 557.32326,510.08255 C 556.54585,509.30514 556.15714,508.33339 556.15714,507.16727 M 595.65937,483.26186 L 595.65937,491.97859 C 594.16281,490.15169 592.82178,488.89813 591.63626,488.21786 C 590.47012,487.51822 589.09993,487.16837 587.5257,487.16835 C 585.05739,487.16837 583.00697,488.03325 581.37443,489.76296 C 579.74186,491.49272 578.92557,493.65977 578.92557,496.26406 C 578.92557,498.92671 579.71271,501.11319 581.28696,502.82347 C 582.88064,504.5338 584.91164,505.38895 587.37992,505.38893 C 588.95418,505.38895 590.34379,505.04883 591.54879,504.36859 C 592.71488,503.70778 594.08507,502.42506 595.65937,500.52039 L 595.65937,509.17881 C 592.99669,510.55873 590.33406,511.24867 587.67146,511.24867 C 583.27907,511.24867 579.60581,509.8299 576.65165,506.99234 C 573.69748,504.13537 572.2204,500.58843 572.2204,496.35153 C 572.2204,492.11465 573.71691,488.53855 576.70996,485.62325 C 579.70298,482.70799 583.37624,481.25034 587.72977,481.25032 C 590.52843,481.25034 593.17163,481.92086 595.65937,483.26186 M 600.67366,496.03083 C 600.67366,491.93001 602.14101,488.44138 605.07575,485.56494 C 608.01048,482.68854 611.58657,481.25034 615.80402,481.25032 C 620.0409,481.25034 623.63643,482.69827 626.59061,485.59409 C 629.50587,488.48997 630.96352,492.04663 630.96355,496.26406 C 630.96352,500.52042 629.49617,504.08678 626.56146,506.9632 C 623.60727,509.82017 619.98259,511.24867 615.68743,511.24867 C 611.43109,511.24867 607.8647,509.79102 604.9883,506.87574 C 602.11188,503.99931 600.67366,500.38436 600.67366,496.03083 M 607.37883,496.14746 C 607.37883,498.98502 608.13681,501.22979 609.65277,502.88178 C 611.20757,504.55323 613.258,505.38895 615.80402,505.38893 C 618.36946,505.38895 620.41988,504.56293 621.9553,502.91094 C 623.49067,501.25894 624.25835,499.05304 624.25838,496.29321 C 624.25835,493.53342 623.49067,491.32753 621.9553,489.67552 C 620.40045,488.00409 618.35003,487.16837 615.80402,487.16835 C 613.29685,487.16837 611.26588,488.00409 609.71106,489.67552 C 608.15624,491.34696 607.37883,493.50429 607.37883,496.14746 M 637.93109,482.03743 L 644.4905,482.03743 L 644.4905,484.6612 C 645.75379,483.33963 646.83244,482.44561 647.72648,481.97914 C 648.6788,481.49329 649.87407,481.25034 651.3123,481.25032 C 654.51909,481.25034 657.05541,482.64968 658.9212,485.44834 C 660.98133,482.64968 663.77028,481.25034 667.28811,481.25032 C 673.68226,481.25034 676.87938,485.12767 676.8794,492.88233 L 676.8794,510.4324 L 670.29086,510.4324 L 670.29086,494.66065 C 670.29081,491.93974 669.96042,490.01564 669.29965,488.88838 C 668.61939,487.74171 667.50186,487.16837 665.94706,487.16835 C 664.13956,487.16837 662.81796,487.84861 661.98226,489.20907 C 661.16597,490.56955 660.75781,492.75603 660.75786,495.76848 L 660.75786,510.4324 L 654.16929,510.4324 L 654.16929,494.74812 C 654.16926,489.69497 652.71161,487.16837 649.79636,487.16835 C 647.94997,487.16837 646.59922,487.85834 645.74409,489.23822 C 644.90837,490.61814 644.4905,492.79489 644.4905,495.76848 L 644.4905,510.4324 L 637.93109,510.4324 L 637.93109,482.03743"
       id="text2184" />
    <path
       style="font-size:12.69765949px;font-style:normal;font-weight:normal;fill:#808080;fill-opacity:1;stroke:none;stroke-width:1px;stroke-linecap:butt;stroke-linejoin:miter;stroke-opacity:1;font-family:Bitstream Vera Sans"
       d="M 555.96116,507.24036 C 555.96116,506.08872 556.38275,505.0913 557.22592,504.24811 C 558.0691,503.40495 559.07678,502.98338 560.24901,502.98336 C 561.42123,502.98338 562.4289,503.40495 563.27209,504.24811 C 564.11525,505.0913 564.53684,506.099 564.53687,507.27121 C 564.53684,508.46399 564.11525,509.48197 563.27209,510.32515 C 562.44947,511.14774 561.44177,511.55906 560.24901,511.55906 C 559.03565,511.55906 558.01768,511.14774 557.19507,510.32515 C 556.37245,509.50254 555.96116,508.47427 555.96116,507.24036"
       id="text2396" />
  </g>
</svg>
