<?xml version="1.0" encoding="UTF-8" standalone="no"?>
<!-- Created with Inkscape (http://www.inkscape.org/) -->
<svg
   xmlns:dc="http://purl.org/dc/elements/1.1/"
   xmlns:cc="http://web.resource.org/cc/"
   xmlns:rdf="http://www.w3.org/1999/02/22-rdf-syntax-ns#"
   xmlns:svg="http://www.w3.org/2000/svg"
   xmlns="http://www.w3.org/2000/svg"
   xmlns:sodipodi="http://sodipodi.sourceforge.net/DTD/sodipodi-0.dtd"
   xmlns:inkscape="http://www.inkscape.org/namespaces/inkscape"
   width="1052.3622"
   height="744.09448"
   id="svg2190"
   sodipodi:version="0.32"
   inkscape:version="0.45.1"
   version="1.0"
   sodipodi:docbase="/home/prh/Art/insophia/remeras/paths"
   sodipodi:docname="frente-negras.svg"
   inkscape:output_extension="org.inkscape.output.svg.inkscape"
   inkscape:export-filename="/home/prh/logos3.png"
   inkscape:export-xdpi="81.330002"
   inkscape:export-ydpi="81.330002">
  <defs
     id="defs2192" />
  <sodipodi:namedview
     id="base"
     pagecolor="#000000"
     bordercolor="#666666"
     borderopacity="1.0"
     gridtolerance="10000"
     guidetolerance="10"
     objecttolerance="10"
     inkscape:pageopacity="1"
     inkscape:pageshadow="2"
     inkscape:zoom="1"
     inkscape:cx="452.0263"
     inkscape:cy="365.64395"
     inkscape:document-units="px"
     inkscape:current-layer="layer1"
     width="1052.3622px"
     height="744.09448px"
     inkscape:window-width="1438"
     inkscape:window-height="794"
     inkscape:window-x="0"
     inkscape:window-y="60" />
  <metadata
     id="metadata2195">
    <rdf:RDF>
      <cc:Work
         rdf:about="">
        <dc:format>image/svg+xml</dc:format>
        <dc:type
           rdf:resource="http://purl.org/dc/dcmitype/StillImage" />
      </cc:Work>
    </rdf:RDF>
  </metadata>
  <g
     inkscape:label="Layer 1"
     inkscape:groupmode="layer"
     id="layer1">
    <path
       style="font-size:192px;font-style:normal;font-weight:normal;fill:#808080;fill-opacity:1;stroke:none;stroke-width:1px;stroke-linecap:butt;stroke-linejoin:miter;stroke-opacity:1;font-family:Futura"
       d="M 185.23094,332.11011 L 185.23094,423.42261 L 164.13719,423.42261 L 164.13719,332.11011 L 185.23094,332.11011 M 160.94969,294.14136 C 160.94968,290.45399 162.29343,287.26649 164.98094,284.57886 C 167.66842,281.8915 170.88717,280.54775 174.63719,280.54761 C 178.44966,280.54775 181.69966,281.8915 184.38719,284.57886 C 187.07466,287.20399 188.4184,290.42274 188.41844,294.23511 C 188.4184,298.04773 187.07466,301.29773 184.38719,303.98511 C 181.76216,306.67272 178.54341,308.01647 174.73094,308.01636 C 170.91842,308.01647 167.66842,306.67272 164.98094,303.98511 C 162.29343,301.29773 160.94968,298.01648 160.94969,294.14136 M 212.13719,332.11011 L 233.32469,332.11011 L 233.32469,340.54761 C 240.69965,333.2352 249.01214,329.57895 258.26219,329.57886 C 268.88712,329.57895 277.16836,332.9227 283.10594,339.61011 C 288.23085,345.29769 290.79335,354.57893 290.79344,367.45386 L 290.79344,423.42261 L 269.60594,423.42261 L 269.60594,372.42261 C 269.60587,363.42267 268.35587,357.20392 265.85594,353.76636 C 263.41838,350.26643 258.98088,348.51643 252.54344,348.51636 C 245.5434,348.51643 240.57465,350.82893 237.63719,355.45386 C 234.76216,360.01642 233.32466,367.98516 233.32469,379.36011 L 233.32469,423.42261 L 212.13719,423.42261 L 212.13719,332.11011 M 370.57469,347.67261 L 353.13719,356.95386 C 350.38715,351.32893 346.9809,348.51643 342.91844,348.51636 C 340.9809,348.51643 339.32466,349.17268 337.94969,350.48511 C 336.57466,351.73518 335.88716,353.36018 335.88719,355.36011 C 335.88716,358.86017 339.94966,362.32892 348.07469,365.76636 C 359.26214,370.57891 366.79338,375.01641 370.66844,379.07886 C 374.54337,383.1414 376.48087,388.61014 376.48094,395.48511 C 376.48087,404.29763 373.23087,411.67262 366.73094,417.61011 C 360.41839,423.23511 352.79339,426.0476 343.85594,426.04761 C 328.54342,426.0476 317.69968,418.57886 311.32469,403.64136 L 329.32469,395.29761 C 331.82466,399.67263 333.73091,402.45388 335.04344,403.64136 C 337.60591,406.01637 340.66841,407.20387 344.23094,407.20386 C 351.35589,407.20387 354.91839,403.95388 354.91844,397.45386 C 354.91839,393.70389 352.16839,390.20389 346.66844,386.95386 C 344.5434,385.89139 342.4184,384.86015 340.29344,383.86011 C 338.16841,382.86015 336.01216,381.8289 333.82469,380.76636 C 327.69967,377.7664 323.38717,374.76641 320.88719,371.76636 C 317.69968,367.95391 316.10593,363.04767 316.10594,357.04761 C 316.10593,349.11018 318.82468,342.54769 324.26219,337.36011 C 329.82467,332.1727 336.57466,329.57895 344.51219,329.57886 C 356.19964,329.57895 364.88713,335.6102 370.57469,347.67261 M 391.19969,377.11011 C 391.19968,363.92267 395.91843,352.70393 405.35594,343.45386 C 414.79341,334.20395 426.2934,329.57895 439.85594,329.57886 C 453.48087,329.57895 465.04336,334.2352 474.54344,343.54761 C 483.91834,352.86018 488.60584,364.29767 488.60594,377.86011 C 488.60584,391.54764 483.88709,403.01638 474.44969,412.26636 C 464.94961,421.45386 453.29337,426.0476 439.48094,426.04761 C 425.7934,426.0476 414.32466,421.36011 405.07469,411.98511 C 395.82468,402.73513 391.19968,391.11014 391.19969,377.11011 M 412.76219,377.48511 C 412.76216,386.61014 415.19966,393.82889 420.07469,399.14136 C 425.07465,404.51638 431.66839,407.20387 439.85594,407.20386 C 448.10588,407.20387 454.69962,404.54763 459.63719,399.23511 C 464.57461,393.92264 467.04336,386.82889 467.04344,377.95386 C 467.04336,369.07891 464.57461,361.98517 459.63719,356.67261 C 454.63712,351.29768 448.04338,348.61018 439.85594,348.61011 C 431.79339,348.61018 425.26215,351.29768 420.26219,356.67261 C 415.26216,362.04767 412.76216,368.98516 412.76219,377.48511 M 532.10594,473.11011 L 511.01219,473.11011 L 511.01219,332.11011 L 532.10594,332.11011 L 532.10594,342.04761 C 540.4184,333.7352 549.85589,329.57895 560.41844,329.57886 C 572.98087,329.57895 583.32461,334.20395 591.44969,343.45386 C 599.69959,352.64143 603.82459,364.23517 603.82469,378.23511 C 603.82459,391.92264 599.73084,403.32888 591.54344,412.45386 C 583.41836,421.51636 573.16837,426.0476 560.79344,426.04761 C 550.10589,426.0476 540.5434,421.76636 532.10594,413.20386 L 532.10594,473.11011 M 582.26219,378.32886 C 582.26211,369.57891 579.88711,362.45392 575.13719,356.95386 C 570.32462,351.39143 564.26213,348.61018 556.94969,348.61011 C 549.19964,348.61018 542.9184,351.29768 538.10594,356.67261 C 533.29341,362.04767 530.88716,369.11016 530.88719,377.86011 C 530.88716,386.42264 533.29341,393.48514 538.10594,399.04761 C 542.8559,404.48513 549.10589,407.20387 556.85594,407.20386 C 564.16838,407.20387 570.19962,404.45388 574.94969,398.95386 C 579.82461,393.45389 582.26211,386.57889 582.26219,378.32886 M 626.13719,265.07886 L 647.23094,265.07886 L 647.23094,339.70386 C 654.7309,332.95395 663.01214,329.57895 672.07469,329.57886 C 682.38712,329.57895 690.63711,332.9227 696.82469,339.61011 C 702.0746,345.42269 704.6996,354.70393 704.69969,367.45386 L 704.69969,423.42261 L 683.60594,423.42261 L 683.60594,369.42261 C 683.60587,362.11017 682.29337,356.82892 679.66844,353.57886 C 677.10588,350.26643 672.94963,348.61018 667.19969,348.61011 C 659.82464,348.61018 654.63715,350.89143 651.63719,355.45386 C 648.69966,360.07892 647.23091,368.01641 647.23094,379.26636 L 647.23094,423.42261 L 626.13719,423.42261 L 626.13719,265.07886 M 752.60594,332.11011 L 752.60594,423.42261 L 731.51219,423.42261 L 731.51219,332.11011 L 752.60594,332.11011 M 728.32469,294.14136 C 728.32468,290.45399 729.66843,287.26649 732.35594,284.57886 C 735.04342,281.8915 738.26217,280.54775 742.01219,280.54761 C 745.82466,280.54775 749.07466,281.8915 751.76219,284.57886 C 754.44966,287.20399 755.7934,290.42274 755.79344,294.23511 C 755.7934,298.04773 754.44966,301.29773 751.76219,303.98511 C 749.13716,306.67272 745.91841,308.01647 742.10594,308.01636 C 738.29342,308.01647 735.04342,306.67272 732.35594,303.98511 C 729.66843,301.29773 728.32468,298.01648 728.32469,294.14136 M 846.82469,332.11011 L 868.01219,332.11011 L 868.01219,423.42261 L 846.82469,423.42261 L 846.82469,413.86011 C 838.13712,421.98511 828.79338,426.0476 818.79344,426.04761 C 806.1684,426.0476 795.73091,421.48511 787.48094,412.36011 C 779.29343,403.04763 775.19968,391.42264 775.19969,377.48511 C 775.19968,363.79767 779.29343,352.39143 787.48094,343.26636 C 795.66841,334.14145 805.9184,329.57895 818.23094,329.57886 C 828.85588,329.57895 838.38712,333.95395 846.82469,342.70386 L 846.82469,332.11011 M 796.76219,377.48511 C 796.76216,386.23514 799.10591,393.36014 803.79344,398.86011 C 808.6059,404.42263 814.66839,407.20387 821.98094,407.20386 C 829.79338,407.20387 836.10587,404.51638 840.91844,399.14136 C 845.73086,393.57889 848.13711,386.51639 848.13719,377.95386 C 848.13711,369.39141 845.73086,362.32892 840.91844,356.76636 C 836.10587,351.32893 829.85588,348.61018 822.16844,348.61011 C 814.91839,348.61018 808.8559,351.36018 803.98094,356.86011 C 799.16841,362.42267 796.76216,369.29766 796.76219,377.48511"
       id="text2226" />
    <path
       transform="scale(1.0124267,0.9877258)"
       style="font-size:213.03204346px;font-style:normal;font-weight:normal;fill:#c87137;fill-opacity:1;stroke:none;stroke-width:1px;stroke-linecap:butt;stroke-linejoin:miter;stroke-opacity:1;font-family:Futura"
       d="M 158.02407,297.97188 C 158.02405,294.0885 159.44565,290.7252 162.28887,287.88198 C 165.13205,285.03881 168.53002,283.61721 172.48279,283.61718 C 176.43549,283.61721 179.83346,285.03881 182.6767,287.88198 C 185.51986,290.7252 186.94146,294.12317 186.94151,298.0759 C 186.94146,302.098 185.51986,305.53064 182.6767,308.37384 C 179.90281,311.14769 176.50484,312.53461 172.48279,312.53462 C 168.39132,312.53461 164.95868,311.14769 162.18485,308.37384 C 159.41098,305.59998 158.02405,302.13267 158.02407,297.97188"
       id="text2234" />
    <path
       transform="scale(1.0124267,0.9877258)"
       style="font-size:213.03204346px;font-style:normal;font-weight:normal;fill:#c87137;fill-opacity:1;stroke:none;stroke-width:1px;stroke-linecap:butt;stroke-linejoin:miter;stroke-opacity:1;font-family:Futura"
       d="M 718.39889,298.1198 C 718.39887,294.23642 719.82047,290.87312 722.66369,288.0299 C 725.50686,285.18673 728.90483,283.76513 732.85761,283.7651 C 736.81031,283.76513 740.20828,285.18673 743.05152,288.0299 C 745.89468,290.87312 747.31628,294.27109 747.31632,298.22382 C 747.31628,302.24592 745.89468,305.67856 743.05152,308.52175 C 740.27763,311.29561 736.87966,312.68253 732.85761,312.68254 C 728.76614,312.68253 725.3335,311.29561 722.55967,308.52175 C 719.7858,305.7479 718.39887,302.28059 718.39889,298.1198"
       id="text2684" />
  </g>
</svg>
