<?xml version="1.0" encoding="UTF-8" standalone="no"?>
<!-- Created with Inkscape (http://www.inkscape.org/) -->
<svg
   xmlns:dc="http://purl.org/dc/elements/1.1/"
   xmlns:cc="http://web.resource.org/cc/"
   xmlns:rdf="http://www.w3.org/1999/02/22-rdf-syntax-ns#"
   xmlns:svg="http://www.w3.org/2000/svg"
   xmlns="http://www.w3.org/2000/svg"
   xmlns:sodipodi="http://sodipodi.sourceforge.net/DTD/sodipodi-0.dtd"
   xmlns:inkscape="http://www.inkscape.org/namespaces/inkscape"
   width="431.35999"
   height="165.09"
   id="svg2400"
   sodipodi:version="0.32"
   inkscape:version="0.45.1"
   sodipodi:docbase="/home/prh/Art/insophia/remeras/text"
   sodipodi:docname="atras-blancas.svg"
   inkscape:output_extension="org.inkscape.output.svg.inkscape"
   version="1.0">
  <defs
     id="defs2402" />
  <sodipodi:namedview
     id="base"
     pagecolor="#ffffff"
     bordercolor="#666666"
     borderopacity="1.0"
     gridtolerance="10000"
     guidetolerance="10"
     objecttolerance="10"
     inkscape:pageopacity="0.0"
     inkscape:pageshadow="2"
     inkscape:zoom="5.6"
     inkscape:cx="286.26841"
     inkscape:cy="82.912004"
     inkscape:document-units="px"
     inkscape:current-layer="layer1"
     showguides="true"
     inkscape:guide-bbox="true"
     inkscape:window-width="1438"
     inkscape:window-height="839"
     inkscape:window-x="0"
     inkscape:window-y="15"
     width="431.36px"
     height="165.09px" />
  <metadata
     id="metadata2405">
    <rdf:RDF>
      <cc:Work
         rdf:about="">
        <dc:format>image/svg+xml</dc:format>
        <dc:type
           rdf:resource="http://purl.org/dc/dcmitype/StillImage" />
      </cc:Work>
    </rdf:RDF>
  </metadata>
  <g
     inkscape:label="Layer 1"
     inkscape:groupmode="layer"
     id="layer1">
    <path
       style="font-size:12px;font-style:normal;font-weight:normal;fill:#c87137;fill-opacity:1;stroke:none;stroke-width:1px;stroke-linecap:butt;stroke-linejoin:miter;stroke-opacity:1;font-family:Bitstream Vera Sans"
       d="M 52.79187,39.007095 L 38.284058,39.007095 L 38.284058,47.702408 L 52.369995,47.702408 L 52.369995,52.83522 L 38.284058,52.83522 L 38.284058,64.92897 L 52.79187,64.92897 L 52.79187,70.061783 L 32.82312,70.061783 L 32.82312,33.874283 L 52.79187,33.874283 L 52.79187,39.007095 M 64.276245,30.475845 L 64.276245,70.061783 L 59.002808,70.061783 L 59.002808,30.475845 L 64.276245,30.475845 M 91.79187,59.889908 L 75.432495,59.889908 C 75.573112,61.764916 76.182487,63.257102 77.26062,64.36647 C 78.338734,65.460225 79.721546,66.007099 81.409058,66.007095 C 82.721543,66.007099 83.807479,65.6946 84.66687,65.069595 C 85.510602,64.444601 86.471539,63.288352 87.549683,61.600845 L 92.002808,64.08522 C 91.315284,65.2571 90.588722,66.264912 89.82312,67.108658 C 89.057474,67.936785 88.237162,68.624284 87.362183,69.171158 C 86.487164,69.702408 85.541852,70.093033 84.526245,70.343033 C 83.510604,70.593032 82.409043,70.718032 81.221558,70.718033 C 77.815297,70.718032 75.080925,69.624283 73.018433,67.436783 C 70.955929,65.233663 69.92468,62.311791 69.924683,58.671158 C 69.92468,55.061798 70.924679,52.139926 72.924683,49.905533 C 74.9403,47.70243 77.612173,46.600869 80.940308,46.600845 C 84.299666,46.600869 86.955913,47.67118 88.909058,49.811783 C 90.846534,51.936801 91.815283,54.882111 91.815308,58.64772 L 91.79187,59.889908 M 86.377808,55.577408 C 85.643415,52.764925 83.869979,51.358677 81.057495,51.358658 C 80.416857,51.358677 79.815295,51.460239 79.252808,51.663345 C 78.690297,51.850864 78.174672,52.132113 77.705933,52.507095 C 77.252798,52.866488 76.862173,53.303987 76.534058,53.819595 C 76.205924,54.335236 75.955924,54.921173 75.784058,55.577408 L 86.377808,55.577408 M 119.61218,69.52272 C 119.61216,70.600845 119.57309,71.546156 119.495,72.358658 C 119.43247,73.18678 119.33872,73.913341 119.21375,74.538345 C 118.83872,76.257089 118.10435,77.73365 117.01062,78.968033 C 114.9481,81.343022 112.11216,82.53052 108.50281,82.530533 C 105.45592,82.53052 102.94811,81.710209 100.97937,80.069595 C 98.948115,78.382087 97.776242,76.046152 97.463745,73.061783 L 102.76062,73.061783 C 102.96374,74.186779 103.29967,75.053965 103.76843,75.663345 C 104.86217,77.085213 106.45592,77.79615 108.54968,77.796158 C 112.40904,77.79615 114.33872,75.428965 114.33875,70.694595 L 114.33875,67.507095 C 112.24498,69.647721 109.83092,70.718032 107.09656,70.718033 C 103.98717,70.718032 101.4403,69.593033 99.455933,67.343033 C 97.455929,65.061788 96.45593,62.210228 96.455933,58.788345 C 96.45593,55.460235 97.385617,52.632113 99.244995,50.30397 C 101.24499,47.835243 103.88561,46.600869 107.16687,46.600845 C 110.04185,46.600869 112.43248,47.67118 114.33875,49.811783 L 114.33875,47.233658 L 119.61218,47.233658 L 119.61218,69.52272 M 114.54968,58.694595 C 114.54966,56.475859 113.95591,54.702423 112.76843,53.374283 C 111.56529,52.014926 110.02623,51.335239 108.15125,51.33522 C 106.15123,51.335239 104.57311,52.077426 103.41687,53.561783 C 102.36999,54.889923 101.84655,56.608671 101.84656,58.718033 C 101.84655,60.796167 102.36999,62.49929 103.41687,63.827408 C 104.55748,65.280538 106.13561,66.007099 108.15125,66.007095 C 110.16685,66.007099 111.7606,65.272725 112.9325,63.80397 C 114.0106,62.475853 114.54966,60.77273 114.54968,58.694595 M 143.14343,47.233658 L 148.44031,47.233658 L 148.44031,70.061783 L 143.14343,70.061783 L 143.14343,67.671158 C 140.97154,69.702408 138.6356,70.718032 136.13562,70.718033 C 132.97936,70.718032 130.36999,69.577408 128.3075,67.296158 C 126.26062,64.968038 125.23718,62.061791 125.23718,58.577408 C 125.23718,55.155548 126.26062,52.303988 128.3075,50.02272 C 130.35436,47.741493 132.91686,46.600869 135.995,46.600845 C 138.65123,46.600869 141.03404,47.694618 143.14343,49.882095 L 143.14343,47.233658 M 130.62781,58.577408 C 130.6278,60.764917 131.21374,62.546165 132.38562,63.921158 C 133.58873,65.311788 135.10436,66.007099 136.9325,66.007095 C 138.8856,66.007099 140.46373,65.335225 141.66687,63.99147 C 142.86998,62.600853 143.47154,60.83523 143.47156,58.694595 C 143.47154,56.553984 142.86998,54.788361 141.66687,53.39772 C 140.46373,52.038363 138.90123,51.358677 136.97937,51.358658 C 135.16686,51.358677 133.65123,52.046176 132.4325,53.421158 C 131.22936,54.811798 130.6278,56.530546 130.62781,58.577408 M 155.09656,47.233658 L 160.39343,47.233658 L 160.39343,49.343033 C 162.23717,47.51493 164.3153,46.600869 166.62781,46.600845 C 169.28404,46.600869 171.35435,47.436805 172.83875,49.108658 C 174.11997,50.530552 174.7606,52.850863 174.76062,56.069595 L 174.76062,70.061783 L 169.46375,70.061783 L 169.46375,57.311783 C 169.46373,55.061798 169.15123,53.507112 168.52625,52.64772 C 167.91685,51.772739 166.80748,51.335239 165.19812,51.33522 C 163.44811,51.335239 162.20592,51.913363 161.47156,53.069595 C 160.7528,54.210236 160.39342,56.202422 160.39343,59.046158 L 160.39343,70.061783 L 155.09656,70.061783 L 155.09656,47.233658 M 186.87781,52.155533 L 186.87781,70.061783 L 181.60437,70.061783 L 181.60437,52.155533 L 179.35437,52.155533 L 179.35437,47.233658 L 181.60437,47.233658 L 181.60437,38.86647 L 186.87781,38.86647 L 186.87781,47.233658 L 190.97937,47.233658 L 190.97937,52.155533 L 186.87781,52.155533 M 222.64343,51.124283 L 218.28406,53.444595 C 217.59655,52.038363 216.74498,51.335239 215.72937,51.33522 C 215.24499,51.335239 214.83092,51.499301 214.48718,51.827408 C 214.14342,52.139926 213.97155,52.546175 213.97156,53.046158 C 213.97155,53.921174 214.98717,54.788361 217.01843,55.64772 C 219.81529,56.850859 221.6981,57.960232 222.66687,58.975845 C 223.6356,59.99148 224.11998,61.358667 224.12,63.077408 C 224.11998,65.280538 223.30748,67.124286 221.6825,68.608658 C 220.10436,70.014908 218.19811,70.718032 215.96375,70.718033 C 212.13561,70.718032 209.42468,68.850847 207.83093,65.11647 L 212.33093,63.030533 C 212.95593,64.124289 213.43249,64.819601 213.76062,65.11647 C 214.40124,65.710225 215.16686,66.007099 216.0575,66.007095 C 217.83873,66.007099 218.72936,65.1946 218.72937,63.569595 C 218.72936,62.632103 218.04186,61.757104 216.66687,60.944595 C 216.13561,60.67898 215.60436,60.421167 215.07312,60.171158 C 214.54186,59.921168 214.0028,59.663356 213.45593,59.39772 C 211.92468,58.647732 210.84655,57.897733 210.22156,57.14772 C 209.42468,56.194609 209.02624,54.968048 209.02625,53.468033 C 209.02624,51.483676 209.70593,49.843053 211.06531,48.546158 C 212.45593,47.249306 214.14342,46.600869 216.12781,46.600845 C 219.04967,46.600869 221.22154,48.10868 222.64343,51.124283 M 227.79968,58.483658 C 227.79968,55.186798 228.97937,52.382113 231.33875,50.069595 C 233.69811,47.757118 236.57311,46.600869 239.96375,46.600845 C 243.36998,46.600869 246.2606,47.76493 248.63562,50.093033 C 250.97934,52.421175 252.15122,55.280548 252.15125,58.671158 C 252.15122,62.093041 250.97153,64.960225 248.61218,67.27272 C 246.23716,69.569596 243.3231,70.718032 239.87,70.718033 C 236.44811,70.718032 233.58092,69.546158 231.26843,67.202408 C 228.95593,64.889913 227.79968,61.983666 227.79968,58.483658 M 233.19031,58.577408 C 233.1903,60.858667 233.79967,62.663353 235.01843,63.99147 C 236.26842,65.335225 237.91686,66.007099 239.96375,66.007095 C 242.02623,66.007099 243.67466,65.343038 244.90906,64.014908 C 246.14341,62.68679 246.7606,60.913354 246.76062,58.694595 C 246.7606,56.475859 246.14341,54.702423 244.90906,53.374283 C 243.65904,52.030551 242.0106,51.358677 239.96375,51.358658 C 237.94811,51.358677 236.3153,52.030551 235.06531,53.374283 C 233.8153,54.718048 233.1903,56.452421 233.19031,58.577408 M 263.21375,52.155533 L 263.21375,70.061783 L 257.91687,70.061783 L 257.91687,52.155533 L 256.04187,52.155533 L 256.04187,47.233658 L 257.91687,47.233658 L 257.91687,38.421158 C 257.91687,35.546192 258.41687,33.514944 259.41687,32.327408 C 260.79186,30.671197 262.79186,29.843073 265.41687,29.843033 C 266.35436,29.843073 267.53404,30.11651 268.95593,30.663345 L 268.95593,36.05397 L 268.41687,35.77272 C 267.27623,35.19463 266.33873,34.905568 265.60437,34.905533 C 264.66686,34.905568 264.03405,35.241505 263.70593,35.913345 C 263.3778,36.569629 263.21374,37.835253 263.21375,39.71022 L 263.21375,47.233658 L 268.95593,47.233658 L 268.95593,52.155533 L 263.21375,52.155533 M 277.44031,52.155533 L 277.44031,70.061783 L 272.16687,70.061783 L 272.16687,52.155533 L 269.91687,52.155533 L 269.91687,47.233658 L 272.16687,47.233658 L 272.16687,38.86647 L 277.44031,38.86647 L 277.44031,47.233658 L 281.54187,47.233658 L 281.54187,52.155533 L 277.44031,52.155533 M 287.98718,47.233658 L 293.96375,60.264908 L 300.40906,45.14772 L 306.90125,60.264908 L 312.8075,47.233658 L 318.71375,47.233658 L 306.76062,71.77272 L 300.40906,57.077408 L 293.98718,71.77272 L 282.0575,47.233658 L 287.98718,47.233658 M 339.08093,47.233658 L 344.37781,47.233658 L 344.37781,70.061783 L 339.08093,70.061783 L 339.08093,67.671158 C 336.90904,69.702408 334.5731,70.718032 332.07312,70.718033 C 328.91686,70.718032 326.30749,69.577408 324.245,67.296158 C 322.19812,64.968038 321.17468,62.061791 321.17468,58.577408 C 321.17468,55.155548 322.19812,52.303988 324.245,50.02272 C 326.29186,47.741493 328.85436,46.600869 331.9325,46.600845 C 334.58873,46.600869 336.97154,47.694618 339.08093,49.882095 L 339.08093,47.233658 M 326.56531,58.577408 C 326.5653,60.764917 327.15124,62.546165 328.32312,63.921158 C 329.52623,65.311788 331.04186,66.007099 332.87,66.007095 C 334.8231,66.007099 336.40123,65.335225 337.60437,63.99147 C 338.80748,62.600853 339.40904,60.83523 339.40906,58.694595 C 339.40904,56.553984 338.80748,54.788361 337.60437,53.39772 C 336.40123,52.038363 334.83873,51.358677 332.91687,51.358658 C 331.10436,51.358677 329.58873,52.046176 328.37,53.421158 C 327.16686,54.811798 326.5653,56.530546 326.56531,58.577408 M 351.03406,47.233658 L 356.3075,47.233658 L 356.3075,49.27272 C 357.27624,48.257117 358.13561,47.561805 358.88562,47.186783 C 359.65123,46.796181 360.55748,46.600869 361.60437,46.600845 C 362.99498,46.600869 364.4481,47.053993 365.96375,47.96022 L 363.54968,52.788345 C 362.54967,52.069613 361.57311,51.710239 360.62,51.71022 C 357.74499,51.710239 356.30749,53.882112 356.3075,58.225845 L 356.3075,70.061783 L 351.03406,70.061783 L 351.03406,47.233658 M 389.82312,59.889908 L 373.46375,59.889908 C 373.60436,61.764916 374.21374,63.257102 375.29187,64.36647 C 376.36998,65.460225 377.7528,66.007099 379.44031,66.007095 C 380.75279,66.007099 381.83873,65.6946 382.69812,65.069595 C 383.54185,64.444601 384.50279,63.288352 385.58093,61.600845 L 390.03406,64.08522 C 389.34653,65.2571 388.61997,66.264912 387.85437,67.108658 C 387.08872,67.936785 386.26841,68.624284 385.39343,69.171158 C 384.51841,69.702408 383.5731,70.093033 382.5575,70.343033 C 381.54185,70.593032 380.44029,70.718032 379.25281,70.718033 C 375.84655,70.718032 373.11218,69.624283 371.04968,67.436783 C 368.98718,65.233663 367.95593,62.311791 367.95593,58.671158 C 367.95593,55.061798 368.95593,52.139926 370.95593,49.905533 C 372.97155,47.70243 375.64342,46.600869 378.97156,46.600845 C 382.33092,46.600869 384.98716,47.67118 386.94031,49.811783 C 388.87778,51.936801 389.84653,54.882111 389.84656,58.64772 L 389.82312,59.889908 M 384.40906,55.577408 C 383.67466,52.764925 381.90123,51.358677 379.08875,51.358658 C 378.44811,51.358677 377.84655,51.460239 377.28406,51.663345 C 376.72155,51.850864 376.20592,52.132113 375.73718,52.507095 C 375.28405,52.866488 374.89342,53.303987 374.56531,53.819595 C 374.23717,54.335236 373.98717,54.921173 373.81531,55.577408 L 384.40906,55.577408"
       id="text2208" />
    <path
       style="font-size:12px;font-style:normal;font-weight:normal;fill:#4d4d4d;fill-opacity:1;stroke:none;stroke-width:1px;stroke-linecap:butt;stroke-linejoin:miter;stroke-opacity:1;font-family:Bitstream Vera Sans"
       d="M 141.26038,114.39919 L 141.26038,125.81325 L 138.62366,125.81325 L 138.62366,114.39919 L 141.26038,114.39919 M 138.22522,109.65309 C 138.22522,109.19217 138.39319,108.79373 138.72913,108.45778 C 139.06506,108.12186 139.4674,107.95389 139.93616,107.95387 C 140.41272,107.95389 140.81897,108.12186 141.15491,108.45778 C 141.49084,108.78592 141.65881,109.18826 141.65881,109.66481 C 141.65881,110.14139 141.49084,110.54764 141.15491,110.88356 C 140.82678,111.21951 140.42444,111.38748 139.94788,111.38747 C 139.47131,111.38748 139.06506,111.21951 138.72913,110.88356 C 138.39319,110.54764 138.22522,110.13748 138.22522,109.65309 M 144.62366,114.39919 L 147.27209,114.39919 L 147.27209,115.45387 C 148.19396,114.53982 149.23303,114.08279 150.38928,114.08278 C 151.7174,114.08279 152.75255,114.50076 153.49475,115.33669 C 154.13536,116.04763 154.45568,117.20779 154.45569,118.81715 L 154.45569,125.81325 L 151.80725,125.81325 L 151.80725,119.43825 C 151.80724,118.31326 151.65099,117.53591 151.3385,117.10622 C 151.03381,116.66873 150.47912,116.44998 149.67444,116.44997 C 148.79943,116.44998 148.17834,116.73904 147.81116,117.31715 C 147.45178,117.88747 147.27209,118.88357 147.27209,120.30544 L 147.27209,125.81325 L 144.62366,125.81325 L 144.62366,114.39919 M 164.42834,116.3445 L 162.24866,117.50465 C 161.9049,116.80154 161.47912,116.44998 160.97131,116.44997 C 160.72912,116.44998 160.52209,116.53201 160.35022,116.69606 C 160.17834,116.85232 160.0924,117.05544 160.09241,117.30544 C 160.0924,117.74294 160.60022,118.17654 161.61584,118.60622 C 163.01428,119.20779 163.95568,119.76247 164.44006,120.27028 C 164.92443,120.7781 165.16662,121.46169 165.16663,122.32106 C 165.16662,123.42263 164.76037,124.3445 163.94788,125.08669 C 163.15881,125.78981 162.20568,126.14137 161.0885,126.14137 C 159.17444,126.14137 157.81897,125.20778 157.02209,123.34059 L 159.27209,122.29762 C 159.58459,122.8445 159.82287,123.19216 159.98694,123.34059 C 160.30725,123.63747 160.69006,123.78591 161.13538,123.7859 C 162.026,123.78591 162.47131,123.37966 162.47131,122.56715 C 162.47131,122.09841 162.12756,121.66091 161.44006,121.25465 C 161.17443,121.12185 160.90881,120.99294 160.64319,120.86794 C 160.37756,120.74294 160.10803,120.61403 159.83459,120.48122 C 159.06897,120.10622 158.5299,119.73122 158.21741,119.35622 C 157.81897,118.87966 157.61975,118.26638 157.61975,117.51637 C 157.61975,116.52419 157.95959,115.70388 158.63928,115.05544 C 159.33459,114.40701 160.17834,114.08279 161.17053,114.08278 C 162.63146,114.08279 163.7174,114.8367 164.42834,116.3445 M 167.00647,120.02419 C 167.00647,118.37576 167.59631,116.97341 168.776,115.81715 C 169.95568,114.66092 171.39318,114.08279 173.0885,114.08278 C 174.79162,114.08279 176.23693,114.66482 177.42444,115.82887 C 178.5963,116.99294 179.18224,118.42263 179.18225,120.11794 C 179.18224,121.82888 178.59239,123.26247 177.41272,124.41872 C 176.22521,125.56715 174.76818,126.14137 173.04163,126.14137 C 171.33068,126.14137 169.89709,125.55544 168.74084,124.38356 C 167.58459,123.22731 167.00647,121.77419 167.00647,120.02419 M 169.70178,120.07106 C 169.70178,121.21169 170.00647,122.11403 170.61584,122.77809 C 171.24084,123.44997 172.06506,123.78591 173.0885,123.7859 C 174.11974,123.78591 174.94396,123.45388 175.56116,122.78981 C 176.17833,122.12575 176.48693,121.23903 176.48694,120.12965 C 176.48693,119.02029 176.17833,118.13357 175.56116,117.4695 C 174.93615,116.79763 174.11193,116.46169 173.0885,116.46169 C 172.08068,116.46169 171.26428,116.79763 170.63928,117.4695 C 170.01428,118.14138 169.70178,119.00857 169.70178,120.07106 M 184.61975,132.02419 L 181.98303,132.02419 L 181.98303,114.39919 L 184.61975,114.39919 L 184.61975,115.64137 C 185.65881,114.60232 186.83849,114.08279 188.15881,114.08278 C 189.72912,114.08279 191.02208,114.66092 192.03772,115.81715 C 193.06896,116.9656 193.58458,118.41482 193.58459,120.16481 C 193.58458,121.87575 193.07286,123.30153 192.04944,124.44215 C 191.0338,125.57497 189.75255,126.14137 188.20569,126.14137 C 186.86974,126.14137 185.67443,125.60622 184.61975,124.5359 L 184.61975,132.02419 M 190.88928,120.17653 C 190.88927,119.08279 190.5924,118.19216 189.99866,117.50465 C 189.39709,116.80935 188.63927,116.46169 187.72522,116.46169 C 186.75646,116.46169 185.97131,116.79763 185.36975,117.4695 C 184.76818,118.14138 184.4674,119.02419 184.46741,120.11794 C 184.4674,121.18825 184.76818,122.07106 185.36975,122.76637 C 185.9635,123.44606 186.74474,123.78591 187.7135,123.7859 C 188.62756,123.78591 189.38146,123.44216 189.97522,122.75465 C 190.58458,122.06716 190.88927,121.20778 190.88928,120.17653 M 196.37366,106.02028 L 199.01038,106.02028 L 199.01038,115.3484 C 199.94787,114.50467 200.98303,114.08279 202.11584,114.08278 C 203.4049,114.08279 204.43615,114.50076 205.20959,115.33669 C 205.86583,116.06326 206.19396,117.22341 206.19397,118.81715 L 206.19397,125.81325 L 203.55725,125.81325 L 203.55725,119.06325 C 203.55724,118.14919 203.39318,117.48904 203.06506,117.08278 C 202.74474,116.66873 202.22521,116.46169 201.50647,116.46169 C 200.58459,116.46169 199.93615,116.74685 199.56116,117.31715 C 199.19397,117.89529 199.01037,118.88747 199.01038,120.29372 L 199.01038,125.81325 L 196.37366,125.81325 L 196.37366,106.02028 M 212.18225,114.39919 L 212.18225,125.81325 L 209.54553,125.81325 L 209.54553,114.39919 L 212.18225,114.39919 M 209.14709,109.65309 C 209.14709,109.19217 209.31506,108.79373 209.651,108.45778 C 209.98694,108.12186 210.38928,107.95389 210.85803,107.95387 C 211.33459,107.95389 211.74084,108.12186 212.07678,108.45778 C 212.41272,108.78592 212.58068,109.18826 212.58069,109.66481 C 212.58068,110.14139 212.41272,110.54764 212.07678,110.88356 C 211.74865,111.21951 211.34631,111.38748 210.86975,111.38747 C 210.39319,111.38748 209.98694,111.21951 209.651,110.88356 C 209.31506,110.54764 209.14709,110.13748 209.14709,109.65309 M 223.95959,114.39919 L 226.60803,114.39919 L 226.60803,125.81325 L 223.95959,125.81325 L 223.95959,124.61794 C 222.87365,125.63356 221.70568,126.14137 220.45569,126.14137 C 218.87756,126.14137 217.57287,125.57106 216.54163,124.43044 C 215.51819,123.26638 215.00647,121.81325 215.00647,120.07106 C 215.00647,118.36013 215.51819,116.93435 216.54163,115.79372 C 217.56506,114.6531 218.84631,114.08279 220.38538,114.08278 C 221.71349,114.08279 222.9049,114.62967 223.95959,115.7234 L 223.95959,114.39919 M 217.70178,120.07106 C 217.70178,121.16481 217.99475,122.05544 218.58069,122.74294 C 219.18225,123.43825 219.94006,123.78591 220.85413,123.7859 C 221.83068,123.78591 222.61974,123.44997 223.22131,122.77809 C 223.82287,122.08278 224.12365,121.19997 224.12366,120.12965 C 224.12365,119.05935 223.82287,118.17654 223.22131,117.48122 C 222.61974,116.80154 221.83849,116.46169 220.87756,116.46169 C 219.97131,116.46169 219.2135,116.80544 218.60413,117.49294 C 218.00256,118.18826 217.70178,119.04763 217.70178,120.07106 M 230.34631,124.50075 C 230.34631,124.06325 230.50647,123.68434 230.82678,123.36403 C 231.14709,123.04372 231.5299,122.88356 231.97522,122.88356 C 232.42053,122.88356 232.80334,123.04372 233.12366,123.36403 C 233.44396,123.68434 233.60412,124.06716 233.60413,124.51247 C 233.60412,124.96559 233.44396,125.35231 233.12366,125.67262 C 232.81115,125.98512 232.42834,126.14137 231.97522,126.14137 C 231.51428,126.14137 231.12756,125.98512 230.81506,125.67262 C 230.50256,125.36012 230.34631,124.9695 230.34631,124.50075 M 246.22522,114.89137 L 246.22522,118.39528 C 245.62365,117.66091 245.08459,117.15701 244.60803,116.88356 C 244.13927,116.60232 243.58849,116.46169 242.95569,116.46169 C 241.96349,116.46169 241.13928,116.80935 240.48303,117.50465 C 239.82678,118.19997 239.49865,119.07107 239.49866,120.11794 C 239.49865,121.18825 239.81506,122.06716 240.44788,122.75465 C 241.0885,123.44216 241.9049,123.78591 242.89709,123.7859 C 243.5299,123.78591 244.08849,123.64919 244.57288,123.37575 C 245.04162,123.11013 245.5924,122.5945 246.22522,121.82887 L 246.22522,125.30934 C 245.1549,125.86403 244.08459,126.14137 243.01428,126.14137 C 241.24865,126.14137 239.77209,125.57106 238.58459,124.43044 C 237.39709,123.282 236.80334,121.85622 236.80334,120.15309 C 236.80334,118.44997 237.40491,117.01248 238.60803,115.84059 C 239.81115,114.66873 241.28771,114.08279 243.03772,114.08278 C 244.16271,114.08279 245.22521,114.35232 246.22522,114.89137 M 248.24084,120.02419 C 248.24084,118.37576 248.83069,116.97341 250.01038,115.81715 C 251.19006,114.66092 252.62756,114.08279 254.32288,114.08278 C 256.02599,114.08279 257.4713,114.66482 258.65881,115.82887 C 259.83068,116.99294 260.41661,118.42263 260.41663,120.11794 C 260.41661,121.82888 259.82677,123.26247 258.64709,124.41872 C 257.45958,125.56715 256.00255,126.14137 254.276,126.14137 C 252.56506,126.14137 251.13147,125.55544 249.97522,124.38356 C 248.81897,123.22731 248.24084,121.77419 248.24084,120.02419 M 250.93616,120.07106 C 250.93615,121.21169 251.24084,122.11403 251.85022,122.77809 C 252.47521,123.44997 253.29943,123.78591 254.32288,123.7859 C 255.35412,123.78591 256.17834,123.45388 256.79553,122.78981 C 257.41271,122.12575 257.7213,121.23903 257.72131,120.12965 C 257.7213,119.02029 257.41271,118.13357 256.79553,117.4695 C 256.17052,116.79763 255.34631,116.46169 254.32288,116.46169 C 253.31506,116.46169 252.49865,116.79763 251.87366,117.4695 C 251.24865,118.14138 250.93615,119.00857 250.93616,120.07106 M 263.21741,114.39919 L 265.85413,114.39919 L 265.85413,115.45387 C 266.36193,114.92263 266.79553,114.56326 267.15491,114.37575 C 267.53771,114.18045 268.01818,114.08279 268.59631,114.08278 C 269.88537,114.08279 270.9049,114.64529 271.65491,115.77028 C 272.48302,114.64529 273.60411,114.08279 275.01819,114.08278 C 277.58848,114.08279 278.87364,115.64138 278.87366,118.75856 L 278.87366,125.81325 L 276.22522,125.81325 L 276.22522,119.4734 C 276.22521,118.37966 276.09239,117.60622 275.82678,117.15309 C 275.55333,116.69216 275.10411,116.46169 274.47913,116.46169 C 273.75255,116.46169 273.2213,116.73513 272.88538,117.282 C 272.55724,117.82888 272.39318,118.70779 272.39319,119.91872 L 272.39319,125.81325 L 269.74475,125.81325 L 269.74475,119.50856 C 269.74474,117.47732 269.15881,116.46169 267.98694,116.46169 C 267.24475,116.46169 266.70178,116.73904 266.35803,117.29372 C 266.02209,117.84841 265.85412,118.72341 265.85413,119.91872 L 265.85413,125.81325 L 263.21741,125.81325 L 263.21741,114.39919"
       id="text2212" />
    <path
       style="font-size:12.24666023px;font-style:normal;font-weight:normal;fill:#c87137;fill-opacity:1;stroke:none;stroke-width:1px;stroke-linecap:butt;stroke-linejoin:miter;stroke-opacity:1;font-family:Bitstream Vera Sans"
       d="M 230.32184,124.50636 C 230.32184,124.05987 230.48529,123.67318 230.81219,123.34628 C 231.13908,123.01938 231.52976,122.85594 231.98423,122.85593 C 232.43869,122.85594 232.82937,123.01938 233.15627,123.34628 C 233.48316,123.67318 233.64661,124.06386 233.64662,124.51832 C 233.64661,124.98076 233.48316,125.37543 233.15627,125.70232 C 232.83734,126.02125 232.44666,126.18071 231.98423,126.18071 C 231.51381,126.18071 231.11915,126.02125 230.80023,125.70232 C 230.4813,125.3834 230.32184,124.98475 230.32184,124.50636"
       id="text2218" />
  </g>
</svg>
